# xmcd
#
# Track frame offsets:
# 150
# 13093
# 29337
# 43367
# 57480
# 68124
# 81457
# 95528
# 106158
# 116175
#
# Disc length: 1706 seconds
#
# Revision: 0
# Processed by: cddbd v1.5.2PL0 Copyright (c) Steve Scherf et al.
# Submitted via: Audion 3.0.2 (http://www.panic.com/audion/)
#
DISCID=8d06a80a
DTITLE=Joe Pass - Better Days
DYEAR=1900
DGENRE=
TTITLE0=Better Days
TTITLE1=Free Sample
TTITLE2=After School
TTITLE3=Balloons
TTITLE4=Burning Spear
TTITLE5=Head Start
TTITLE6=It's Too Late
TTITLE7=Gotcha
TTITLE8=Alison
TTITLE9=We'll Be Together Again
EXTD=
EXTT0=
EXTT1=
EXTT2=
EXTT3=
EXTT4=
EXTT5=
EXTT6=
EXTT7=
EXTT8=
EXTT9=
PLAYORDER=
